<svg xmlns="http://www.w3.org/2000/svg" xmlns:xlink="http://www.w3.org/1999/xlink" viewBox="0 0 74.73 76.44"><defs><style>.cls-1{fill:#fff;}.cls-1,.cls-10,.cls-3,.cls-4,.cls-5,.cls-6,.cls-7,.cls-8{fill-rule:evenodd;}.cls-2{fill:url(#linear-gradient);}.cls-3{fill:url(#linear-gradient-2);}.cls-4{fill:url(#linear-gradient-3);}.cls-5{fill:url(#linear-gradient-4);}.cls-6{fill:url(#linear-gradient-5);}.cls-7{fill:url(#linear-gradient-6);}.cls-8{fill:url(#linear-gradient-7);}.cls-9{mask:url(#mask);}.cls-10{fill:#fefefe;}</style><linearGradient id="linear-gradient" x1="45.01" y1="28.04" x2="64.87" y2="11.19" gradientUnits="userSpaceOnUse"><stop offset="0" stop-color="#16a648"/><stop offset="1" stop-color="#00654a"/></linearGradient><linearGradient id="linear-gradient-2" x1="7.93" y1="48.8" x2="65.96" y2="48.8" gradientUnits="userSpaceOnUse"><stop offset="0" stop-color="#50b848"/><stop offset="1" stop-color="#00984a"/></linearGradient><linearGradient id="linear-gradient-3" x1="42.27" y1="59.63" x2="74.73" y2="59.63" xlink:href="#linear-gradient-2"/><linearGradient id="linear-gradient-4" x1="20.61" y1="44.14" x2="28.11" y2="44.14" xlink:href="#linear-gradient-2"/><linearGradient id="linear-gradient-5" x1="46.67" y1="44.14" x2="54.17" y2="44.14" xlink:href="#linear-gradient-2"/><linearGradient id="linear-gradient-6" x1="28.88" y1="54.34" x2="45.01" y2="54.34" xlink:href="#linear-gradient-2"/><linearGradient id="linear-gradient-7" x1="0" y1="39.13" x2="6.7" y2="39.13" xlink:href="#linear-gradient-2"/><mask id="mask" x="50.63" y="8.36" width="17.44" height="9.65" maskUnits="userSpaceOnUse"><g id="mask-4"><polygon id="path-3" class="cls-1" points="50.63 8.36 68.08 8.36 68.08 18.01 50.63 18.01 50.63 8.36"/></g></mask></defs><g id="Layer_2" data-name="Layer 2"><g id="Layer_1-2" data-name="Layer 1"><path class="cls-2" d="M52.67.29A18.36,18.36,0,0,1,67.24,3.87a18.82,18.82,0,0,1,5.88,7.5,19.13,19.13,0,0,1,1.32,10.55,18,18,0,0,1-5.1,10.13,18.28,18.28,0,0,1-9.9,5.33,18.65,18.65,0,0,1-10.85-1.12,3.23,3.23,0,0,0-2.72,0L40.24,39a1.07,1.07,0,0,1-1.48-1.18l1.61-6.35a3.26,3.26,0,0,0-.49-2.56,18.31,18.31,0,0,1-2.63-13.32A18.38,18.38,0,0,1,42.51,5.48,18,18,0,0,1,52.67.29Z"/><path class="cls-3" d="M66,48.8A20.23,20.23,0,0,0,63.1,38.42a19.37,19.37,0,0,1-3.3.9c-.49.09-1,.17-1.46.22a15.79,15.79,0,0,1-12.79,25H28.32a15.78,15.78,0,0,1,0-31.56h9.61l.52-2a1.3,1.3,0,0,0-.24-1,16.47,16.47,0,0,1-.9-1.58h-9a20.4,20.4,0,0,0,0,40.8H45.55A20.43,20.43,0,0,0,66,48.8Z"/><path class="cls-4" d="M74.73,48.72a5.9,5.9,0,0,0-5.9-5.9,5.51,5.51,0,0,0-1.64.24,22.2,22.2,0,0,1,.75,5.74,22.85,22.85,0,0,1-.7,5.6,5.66,5.66,0,0,0,.93.18A23.38,23.38,0,0,1,48.59,72a3.29,3.29,0,1,0,.13,2A25.38,25.38,0,0,0,70.26,54.44,5.89,5.89,0,0,0,74.73,48.72ZM45.55,74.46a1.3,1.3,0,1,1,1.3-1.29A1.3,1.3,0,0,1,45.55,74.46Z"/><path class="cls-5" d="M20.61,44.14a3.75,3.75,0,1,0,3.75-3.75A3.75,3.75,0,0,0,20.61,44.14Z"/><path class="cls-6" d="M50.42,47.89a3.75,3.75,0,1,0-3.75-3.75A3.75,3.75,0,0,0,50.42,47.89Z"/><path class="cls-7" d="M28.88,50.93v3a4.87,4.87,0,0,0,4.87,4.87h6.39A4.87,4.87,0,0,0,45,53.9v-3a1,1,0,0,0-1-1H29.9A1,1,0,0,0,28.88,50.93Z"/><path class="cls-8" d="M6.7,26.43A2.68,2.68,0,1,0,3.35,29V43.3A5.89,5.89,0,0,0,5.9,54.5a4.85,4.85,0,0,0,.76,0,22.33,22.33,0,0,1,0-11.7,5.37,5.37,0,0,0-.8,0,6,6,0,0,0-1.2.12V29A2.66,2.66,0,0,0,6.7,26.43Z"/><g id="Group-32"><g class="cls-9"><path id="Fill-30" class="cls-10" d="M52.31,8.41a15.49,15.49,0,0,1,6.54.89l.08-.16a1.24,1.24,0,0,1,1.65-.6,1.22,1.22,0,0,1,.59,1.64l-.05.13a14.28,14.28,0,0,1,7,7.7c-1.18-1.56-3.93-3.57-9.27-4.53l-1.51-.26c-3.09-.52-6-1.19-6.57-2.61a1.15,1.15,0,0,1-.1-.48,1.43,1.43,0,0,1,.19-.68,2.36,2.36,0,0,1,1.49-1Z"/></g></g><path id="Fill-33" class="cls-10" d="M56.65,27.94a1.23,1.23,0,0,1,.11,1.74,3.39,3.39,0,0,1-4.36.53,3.31,3.31,0,0,1-1.07-4.34l1.08-2.3a1.24,1.24,0,0,1,2.24,1.05l-1.08,2.3c-.26.56-.2,1,.19,1.22A.89.89,0,0,0,54.9,28a1.24,1.24,0,0,1,1.75-.1"/><path id="Fill-35" class="cls-10" d="M67.77,25.24a1.18,1.18,0,0,1-.39.71c-.75.62-1.92.88-3.72.24-2.32-.83-4-2.86-7.21-4.87a20.25,20.25,0,0,1,7.61.54,6,6,0,0,1,3.5,2.33,1.66,1.66,0,0,1,.21,1"/><path id="Fill-37" class="cls-10" d="M68.66,22.86a7.67,7.67,0,0,1-.38,1.75A2.42,2.42,0,0,0,68,24a6.38,6.38,0,0,0-3.84-2.69c-2.3-.7-4.76-.84-8.78-.49l-1.09.13c-3.77.33-6.08.4-8.38-.66a5.57,5.57,0,0,1-2.79-2.81,4.31,4.31,0,0,1,.15-3.27,9.32,9.32,0,0,1,2.38-3.1,2.74,2.74,0,0,0-.28.77,3.13,3.13,0,0,0,0,.44,2.86,2.86,0,0,0,.58,1.65c1.31,1.84,4.68,2.84,10,3s9.55,1.37,11.58,3.44a3.72,3.72,0,0,1,1.17,2.36,1.15,1.15,0,0,1,0,.19"/><path id="Fill-39" class="cls-10" d="M67.77,19.91c-2-2.18-6.34-3.5-11.84-3.62-5.12-.11-8.33-1-9.53-2.71a2.29,2.29,0,0,1-.47-1.32,2.52,2.52,0,0,1,1.35-2.33l0,0c.13-.07.61-.33,1.24-.6l.35-.13L49.34,9l.07,0a11.61,11.61,0,0,1,1.32-.34l.46-.08a2.1,2.1,0,0,0-.86.69,1.78,1.78,0,0,0-.28,1,1.89,1.89,0,0,0,.13.7c.68,1.81,3.62,2.3,7,2.87l1.5.26c7,1.27,9.57,4.51,9.82,5.6a7.61,7.61,0,0,1,.13.77,1,1,0,0,0,0,.16c0,.08,0,.17,0,.26a2.64,2.64,0,0,1,0,.28.09.09,0,0,0,0,.05v.26a3.84,3.84,0,0,0-1-1.52"/></g></g></svg>